<?xml version="1.0" encoding="UTF-8"?>
<svg width="513px" height="462px" viewBox="0 0 513 462" version="1.1" xmlns="http://www.w3.org/2000/svg" xmlns:xlink="http://www.w3.org/1999/xlink">
    <!-- Generator: Sketch 51.2 (57519) - http://www.bohemiancoding.com/sketch -->
    <title>Shape</title>
    <desc>Created with Sketch.</desc>
    <defs></defs>
    <g id="Page-1" stroke="none" stroke-width="1" fill="none" fill-rule="evenodd">
        <g id="marker" fill="#FFFFFF" fill-rule="nonzero">
            <path d="M497.513,65.178 L454.3,18.364 C433.57,-4.094 398.772,-5.742 376.004,14.496 C78.655,278.806 121.497,240.304 108.054,253.747 C90.381,271.421 83.167,297.463 89.229,321.711 C93.035,336.937 88.507,353.288 77.413,364.387 L4.48,436.322 C-5.04,445.712 1.617,462.001 15.013,462.001 L112.013,462.001 C115.991,462.001 119.806,460.421 122.619,457.608 L146.619,433.608 C157.72,422.508 174.076,417.978 189.302,421.785 C213.786,427.906 239.77,420.457 257.266,402.96 C270.621,389.605 232.58,430.86 497.692,140.893 C517.296,119.454 517.246,86.556 497.513,65.178 Z M105.8,432.001 L51.583,432.001 L87.941,396.141 L114.8,423.001 L105.8,432.001 Z M196.579,392.681 C176.117,387.565 154.434,391.478 137.1,402.875 L108.14,373.915 C119.537,356.582 123.449,334.899 118.334,314.436 C114.957,300.928 118.673,286.46 128.041,276.242 L234.773,382.974 C224.556,392.341 210.088,396.058 196.579,392.681 Z M475.553,120.65 L255.528,361.303 L149.869,255.644 L395.935,36.918 C406.435,27.586 422.729,28.39 432.257,38.713 C432.257,38.613 432.034,38.471 475.469,85.527 C484.69,95.517 484.727,110.617 475.553,120.65 Z" id="Shape"></path>
        </g>
    </g>
</svg>